<svg width="114" height="115" viewBox="0 0 114 115" fill="none" xmlns="http://www.w3.org/2000/svg">
<path d="M48.6974 1.8686C39.2327 3.9686 30.5384 7.7686 23.9351 12.4686C19.2027 15.7686 12.5994 22.9686 13.4798 23.6686C13.7 23.9686 16.5614 22.8686 19.753 21.4686C26.9066 18.1686 54.0901 8.4686 58.8225 7.5686C61.904 6.9686 62.8945 5.9686 65.6459 0.6686C66.3062 -0.6314 56.8415 0.0686001 48.6974 1.8686Z" fill="url(#paint0_linear)"/>
<path d="M40.5534 18.3688C33.6199 20.7688 23.3848 24.5688 17.772 26.9688C8.08719 31.0688 7.64696 31.3688 5.33581 36.2688C2.9146 41.3688 -0.827265 57.6688 0.163229 58.6688C0.493394 58.8688 7.3168 56.1688 15.4609 52.4688C23.4949 48.8688 37.2517 43.4688 46.0561 40.5688L61.904 35.1688L66.0861 28.3688C68.5073 24.6688 70.1582 21.1688 69.9381 20.4688C69.4978 19.5688 55.3007 13.8688 53.76 14.0688C53.4298 14.0688 47.4868 15.9688 40.5534 18.3688Z" fill="url(#paint1_linear)"/>
<path d="M82.9245 35.3686C69.4978 39.4686 57.0616 43.8686 36.7014 51.6686C9.07766 62.3686 0.933594 66.0686 0.933594 68.0686C0.933594 70.7686 5.66596 82.1686 8.9676 87.2686L11.9391 91.7686L31.9691 83.5686C58.3823 72.6686 75.1106 66.7686 92.1691 62.0686L106.036 58.3686L110.218 51.0686C112.529 47.0686 114.29 43.2686 113.96 42.5686C113.19 40.7686 98.2222 31.9686 95.911 31.9686C94.8105 32.0686 88.9775 33.5686 82.9245 35.3686Z" fill="url(#paint2_linear)"/>
<path d="M69.7179 74.8687C49.1376 81.9687 25.1456 91.8687 18.6524 95.8687C16.6714 97.0687 18.9825 98.9687 30.0981 105.369C40.7734 111.469 41.874 111.669 51.0085 107.869C55.3007 106.169 66.1961 102.069 75.2206 98.8687L91.7288 93.0687L95.9109 86.1687L99.983 79.2687L93.0495 75.0687C89.1976 72.8687 84.9054 70.9687 83.3647 70.9687C81.934 70.9687 75.7709 72.7687 69.7179 74.8687Z" fill="url(#paint3_linear)"/>
<path d="M62.1243 109.169C50.6786 114.169 51.2288 114.669 68.0672 114.869C79.7331 114.969 86.7766 113.669 86.7766 111.369C86.7766 109.869 76.6515 104.969 73.57 104.969C72.5795 104.969 67.517 106.869 62.1243 109.169Z" fill="url(#paint4_linear)"/>
<defs>
<linearGradient id="paint0_linear" x1="39.5394" y1="23.7183" x2="39.5394" y2="-3.43323e-05" gradientUnits="userSpaceOnUse">
<stop offset="0.463542" stop-color="#1F618D"/>
<stop offset="0.901042" stop-color="white"/>
</linearGradient>
<linearGradient id="paint1_linear" x1="34.9789" y1="58.6792" x2="34.9789" y2="14.0636" gradientUnits="userSpaceOnUse">
<stop offset="0.463542" stop-color="#1F618D"/>
<stop offset="0.901042" stop-color="white"/>
</linearGradient>
<linearGradient id="paint2_linear" x1="57.4667" y1="91.7686" x2="57.4667" y2="31.9686" gradientUnits="userSpaceOnUse">
<stop offset="0.463542" stop-color="#1F618D"/>
<stop offset="0.901042" stop-color="white"/>
</linearGradient>
<linearGradient id="paint3_linear" x1="58.9984" y1="110.401" x2="58.9984" y2="70.9687" gradientUnits="userSpaceOnUse">
<stop offset="0.463542" stop-color="#1F618D"/>
<stop offset="0.901042" stop-color="white"/>
</linearGradient>
<linearGradient id="paint4_linear" x1="70.5626" y1="114.874" x2="70.5626" y2="104.969" gradientUnits="userSpaceOnUse">
<stop offset="0.463542" stop-color="#1F618D"/>
<stop offset="0.901042" stop-color="white"/>
</linearGradient>
</defs>
</svg>
